<svg width="216" height="335" viewBox="0 0 216 335" fill="none" xmlns="http://www.w3.org/2000/svg">
<path d="M0 15C0 6.71574 6.71573 0 15 0H201C209.284 0 216 6.71573 216 15V313C216 325.15 206.15 335 194 335H22C9.84974 335 0 325.15 0 313V15Z" fill="#0D1012"/>
<path d="M30.866 40.266C29.942 40.266 29.1487 40.1027 28.486 39.776C27.8233 39.4493 27.282 39.0247 26.862 38.502C26.4513 37.9793 26.148 37.41 25.952 36.794C25.756 36.178 25.658 35.5853 25.658 35.016V34.708C25.658 34.0733 25.756 33.448 25.952 32.832C26.1573 32.216 26.47 31.656 26.89 31.152C27.31 30.648 27.842 30.2467 28.486 29.948C29.1393 29.64 29.9093 29.486 30.796 29.486C31.72 29.486 32.5227 29.654 33.204 29.99C33.8947 30.3167 34.4453 30.7833 34.856 31.39C35.2667 31.9873 35.514 32.6873 35.598 33.49H33.596C33.5213 33.0233 33.3533 32.6313 33.092 32.314C32.84 31.9873 32.518 31.7447 32.126 31.586C31.734 31.418 31.2907 31.334 30.796 31.334C30.292 31.334 29.844 31.4227 29.452 31.6C29.06 31.768 28.7333 32.0107 28.472 32.328C28.2107 32.6453 28.01 33.0187 27.87 33.448C27.7393 33.8773 27.674 34.3533 27.674 34.876C27.674 35.38 27.7393 35.8467 27.87 36.276C28.01 36.7053 28.2153 37.0833 28.486 37.41C28.7567 37.7273 29.088 37.9747 29.48 38.152C29.8813 38.3293 30.3433 38.418 30.866 38.418C31.6313 38.418 32.2753 38.2313 32.798 37.858C33.33 37.4753 33.652 36.9433 33.764 36.262H35.766C35.6727 36.99 35.4253 37.6573 35.024 38.264C34.6227 38.8707 34.072 39.356 33.372 39.72C32.672 40.084 31.8367 40.266 30.866 40.266ZM40.9436 40.266C40.2716 40.266 39.6789 40.1587 39.1656 39.944C38.6523 39.7293 38.2183 39.44 37.8636 39.076C37.5089 38.7027 37.2383 38.2827 37.0516 37.816C36.8743 37.3493 36.7856 36.864 36.7856 36.36V36.066C36.7856 35.5433 36.8789 35.0487 37.0656 34.582C37.2616 34.106 37.5369 33.686 37.8916 33.322C38.2556 32.9487 38.6943 32.6593 39.2076 32.454C39.7209 32.2393 40.2996 32.132 40.9436 32.132C41.5876 32.132 42.1663 32.2393 42.6796 32.454C43.1929 32.6593 43.6269 32.9487 43.9816 33.322C44.3456 33.686 44.6209 34.106 44.8076 34.582C44.9943 35.0487 45.0876 35.5433 45.0876 36.066V36.36C45.0876 36.864 44.9943 37.3493 44.8076 37.816C44.6303 38.2827 44.3643 38.7027 44.0096 39.076C43.6549 39.44 43.2209 39.7293 42.7076 39.944C42.1943 40.1587 41.6063 40.266 40.9436 40.266ZM40.9436 38.6C41.4196 38.6 41.8209 38.4973 42.1476 38.292C42.4743 38.0773 42.7216 37.7927 42.8896 37.438C43.0576 37.074 43.1416 36.6633 43.1416 36.206C43.1416 35.7393 43.0529 35.3287 42.8756 34.974C42.7076 34.61 42.4556 34.3253 42.1196 34.12C41.7929 33.9053 41.4009 33.798 40.9436 33.798C40.4863 33.798 40.0896 33.9053 39.7536 34.12C39.4269 34.3253 39.1749 34.61 38.9976 34.974C38.8203 35.3287 38.7316 35.7393 38.7316 36.206C38.7316 36.6633 38.8156 37.074 38.9836 37.438C39.1609 37.7927 39.4129 38.0773 39.7396 38.292C40.0663 38.4973 40.4676 38.6 40.9436 38.6ZM46.8895 40V29.78H48.8355V40H46.8895ZM45.9375 31.236V29.78H48.8355V31.236H45.9375ZM51.1552 40V29.78H53.1012V40H51.1552ZM50.2032 31.236V29.78H53.1012V31.236H50.2032ZM58.7248 40.266C58.0715 40.266 57.4975 40.154 57.0028 39.93C56.5175 39.706 56.1115 39.4073 55.7848 39.034C55.4675 38.6513 55.2248 38.2267 55.0568 37.76C54.8981 37.2933 54.8188 36.8173 54.8188 36.332V36.066C54.8188 35.562 54.8981 35.0767 55.0568 34.61C55.2248 34.134 55.4675 33.714 55.7848 33.35C56.1115 32.9767 56.5128 32.6827 56.9888 32.468C57.4648 32.244 58.0155 32.132 58.6408 32.132C59.4621 32.132 60.1481 32.314 60.6988 32.678C61.2588 33.0327 61.6788 33.504 61.9588 34.092C62.2388 34.6707 62.3788 35.296 62.3788 35.968V36.668H55.6448V35.478H61.1608L60.5588 36.066C60.5588 35.5807 60.4888 35.1653 60.3488 34.82C60.2088 34.4747 59.9941 34.2087 59.7048 34.022C59.4248 33.8353 59.0701 33.742 58.6408 33.742C58.2115 33.742 57.8475 33.84 57.5488 34.036C57.2501 34.232 57.0215 34.5167 56.8628 34.89C56.7135 35.254 56.6388 35.6927 56.6388 36.206C56.6388 36.682 56.7135 37.1067 56.8628 37.48C57.0121 37.844 57.2408 38.1333 57.5488 38.348C57.8568 38.5533 58.2488 38.656 58.7248 38.656C59.2008 38.656 59.5881 38.5627 59.8868 38.376C60.1855 38.18 60.3768 37.942 60.4608 37.662H62.2528C62.1408 38.1847 61.9261 38.642 61.6088 39.034C61.2915 39.426 60.8855 39.7293 60.3908 39.944C59.9055 40.1587 59.3501 40.266 58.7248 40.266ZM67.3784 40.266C66.7158 40.266 66.1418 40.154 65.6564 39.93C65.1804 39.706 64.7791 39.4073 64.4524 39.034C64.1351 38.6607 63.8971 38.2407 63.7384 37.774C63.5798 37.3073 63.5004 36.8313 63.5004 36.346V36.08C63.5004 35.5667 63.5798 35.0767 63.7384 34.61C63.9064 34.134 64.1538 33.714 64.4804 33.35C64.8071 32.9767 65.2084 32.6827 65.6844 32.468C66.1698 32.244 66.7298 32.132 67.3644 32.132C68.0271 32.132 68.6198 32.2627 69.1424 32.524C69.6651 32.776 70.0804 33.1307 70.3884 33.588C70.7058 34.0453 70.8831 34.5773 70.9204 35.184H69.0304C68.9838 34.792 68.8158 34.4653 68.5264 34.204C68.2464 33.9427 67.8591 33.812 67.3644 33.812C66.9351 33.812 66.5758 33.9147 66.2864 34.12C66.0064 34.3253 65.7964 34.61 65.6564 34.974C65.5164 35.3287 65.4464 35.7393 65.4464 36.206C65.4464 36.654 65.5118 37.06 65.6424 37.424C65.7824 37.788 65.9924 38.0727 66.2724 38.278C66.5618 38.4833 66.9304 38.586 67.3784 38.586C67.7144 38.586 68.0038 38.5253 68.2464 38.404C68.4891 38.2827 68.6804 38.1147 68.8204 37.9C68.9698 37.6853 69.0631 37.4427 69.1004 37.172H70.9904C70.9531 37.788 70.7711 38.3293 70.4444 38.796C70.1271 39.2533 69.7024 39.6127 69.1704 39.874C68.6478 40.1353 68.0504 40.266 67.3784 40.266ZM75.8534 40.098C75.1534 40.098 74.5747 40.0093 74.1174 39.832C73.6694 39.6453 73.3334 39.3373 73.1094 38.908C72.8854 38.4693 72.7734 37.8813 72.7734 37.144L72.7874 30.256H74.6074L74.5934 37.27C74.5934 37.6433 74.6914 37.9327 74.8874 38.138C75.0927 38.334 75.382 38.432 75.7554 38.432H76.9454V40.098H75.8534ZM71.5694 33.826V32.398H76.9454V33.826H71.5694ZM78.9427 40V32.398H80.8887V40H78.9427ZM77.8787 33.854V32.398H80.8887V33.854H77.8787ZM79.6567 31.488C79.274 31.488 78.9893 31.39 78.8027 31.194C78.6253 30.9887 78.5367 30.7367 78.5367 30.438C78.5367 30.1207 78.6253 29.864 78.8027 29.668C78.9893 29.472 79.274 29.374 79.6567 29.374C80.0393 29.374 80.3193 29.472 80.4967 29.668C80.674 29.864 80.7627 30.1207 80.7627 30.438C80.7627 30.7367 80.674 30.9887 80.4967 31.194C80.3193 31.39 80.0393 31.488 79.6567 31.488ZM86.7854 40.266C86.1134 40.266 85.5207 40.1587 85.0074 39.944C84.4941 39.7293 84.0601 39.44 83.7054 39.076C83.3507 38.7027 83.0801 38.2827 82.8934 37.816C82.7161 37.3493 82.6274 36.864 82.6274 36.36V36.066C82.6274 35.5433 82.7207 35.0487 82.9074 34.582C83.1034 34.106 83.3787 33.686 83.7334 33.322C84.0974 32.9487 84.5361 32.6593 85.0494 32.454C85.5627 32.2393 86.1414 32.132 86.7854 32.132C87.4294 32.132 88.0081 32.2393 88.5214 32.454C89.0347 32.6593 89.4687 32.9487 89.8234 33.322C90.1874 33.686 90.4627 34.106 90.6494 34.582C90.8361 35.0487 90.9294 35.5433 90.9294 36.066V36.36C90.9294 36.864 90.8361 37.3493 90.6494 37.816C90.4721 38.2827 90.2061 38.7027 89.8514 39.076C89.4967 39.44 89.0627 39.7293 88.5494 39.944C88.0361 40.1587 87.4481 40.266 86.7854 40.266ZM86.7854 38.6C87.2614 38.6 87.6627 38.4973 87.9894 38.292C88.3161 38.0773 88.5634 37.7927 88.7314 37.438C88.8994 37.074 88.9834 36.6633 88.9834 36.206C88.9834 35.7393 88.8947 35.3287 88.7174 34.974C88.5494 34.61 88.2974 34.3253 87.9614 34.12C87.6347 33.9053 87.2427 33.798 86.7854 33.798C86.3281 33.798 85.9314 33.9053 85.5954 34.12C85.2687 34.3253 85.0167 34.61 84.8394 34.974C84.6621 35.3287 84.5734 35.7393 84.5734 36.206C84.5734 36.6633 84.6574 37.074 84.8254 37.438C85.0027 37.7927 85.2547 38.0773 85.5814 38.292C85.9081 38.4973 86.3094 38.6 86.7854 38.6ZM92.6333 40V32.398H94.1733V35.66H94.0333C94.0333 34.8853 94.136 34.2413 94.3413 33.728C94.5467 33.2053 94.85 32.8133 95.2513 32.552C95.662 32.2907 96.1707 32.16 96.7773 32.16H96.8613C97.7667 32.16 98.4527 32.454 98.9193 33.042C99.386 33.6207 99.6193 34.4887 99.6193 35.646V40H97.6733V35.478C97.6733 35.0113 97.538 34.6333 97.2673 34.344C97.006 34.0547 96.642 33.91 96.1753 33.91C95.6993 33.91 95.312 34.0593 95.0133 34.358C94.724 34.6473 94.5793 35.0393 94.5793 35.534V40H92.6333ZM104.469 40.238C103.424 40.238 102.603 40.0187 102.005 39.58C101.417 39.132 101.109 38.516 101.081 37.732H102.831C102.859 37.9933 103.004 38.2313 103.265 38.446C103.527 38.6607 103.937 38.768 104.497 38.768C104.964 38.768 105.333 38.684 105.603 38.516C105.883 38.348 106.023 38.1193 106.023 37.83C106.023 37.578 105.916 37.3773 105.701 37.228C105.496 37.0787 105.141 36.9807 104.637 36.934L103.965 36.864C103.116 36.7707 102.463 36.528 102.005 36.136C101.548 35.744 101.319 35.2213 101.319 34.568C101.319 34.0453 101.45 33.6067 101.711 33.252C101.973 32.8973 102.332 32.6313 102.789 32.454C103.256 32.2673 103.788 32.174 104.385 32.174C105.319 32.174 106.075 32.3793 106.653 32.79C107.232 33.2007 107.535 33.8027 107.563 34.596H105.813C105.795 34.3347 105.664 34.1107 105.421 33.924C105.179 33.7373 104.829 33.644 104.371 33.644C103.961 33.644 103.643 33.7233 103.419 33.882C103.195 34.0407 103.083 34.246 103.083 34.498C103.083 34.7407 103.172 34.9273 103.349 35.058C103.536 35.1887 103.835 35.2773 104.245 35.324L104.917 35.394C105.813 35.4873 106.513 35.7347 107.017 36.136C107.531 36.5373 107.787 37.0787 107.787 37.76C107.787 38.264 107.647 38.7027 107.367 39.076C107.097 39.44 106.714 39.7247 106.219 39.93C105.725 40.1353 105.141 40.238 104.469 40.238Z" fill="#F9F9F9"/>
<rect x="15" y="65" width="188" height="78" rx="13" fill="#14181B"/>
<rect x="27" y="77" width="33" height="32" rx="12" fill="#FF7667"/>
<path d="M74.746 92.266C73.8407 92.266 73.0753 92.1213 72.45 91.832C71.834 91.5427 71.3627 91.146 71.036 90.642C70.7093 90.1287 70.546 89.55 70.546 88.906H72.492C72.492 89.1767 72.5667 89.4427 72.716 89.704C72.8653 89.956 73.1033 90.1613 73.43 90.32C73.766 90.4787 74.2047 90.558 74.746 90.558C75.2313 90.558 75.6373 90.488 75.964 90.348C76.2907 90.208 76.5333 90.026 76.692 89.802C76.8507 89.5687 76.93 89.3073 76.93 89.018C76.93 88.654 76.776 88.3647 76.468 88.15C76.16 87.926 75.684 87.786 75.04 87.73L74.144 87.66C73.164 87.576 72.38 87.2727 71.792 86.75C71.2133 86.218 70.924 85.518 70.924 84.65C70.924 83.9967 71.078 83.4367 71.386 82.97C71.694 82.494 72.1233 82.13 72.674 81.878C73.234 81.6167 73.8873 81.486 74.634 81.486C75.4087 81.486 76.076 81.6213 76.636 81.892C77.196 82.1627 77.63 82.5453 77.938 83.04C78.246 83.5253 78.4 84.0993 78.4 84.762H76.454C76.454 84.482 76.384 84.2253 76.244 83.992C76.1133 83.7493 75.9127 83.558 75.642 83.418C75.3807 83.2687 75.0447 83.194 74.634 83.194C74.242 83.194 73.9153 83.2593 73.654 83.39C73.3927 83.5207 73.1967 83.698 73.066 83.922C72.9353 84.146 72.87 84.3887 72.87 84.65C72.87 84.9673 72.9867 85.2473 73.22 85.49C73.4533 85.7233 73.822 85.8587 74.326 85.896L75.222 85.98C75.95 86.036 76.5893 86.19 77.14 86.442C77.6907 86.694 78.1153 87.0347 78.414 87.464C78.722 87.8933 78.876 88.4113 78.876 89.018C78.876 89.662 78.708 90.2313 78.372 90.726C78.036 91.2113 77.5553 91.5893 76.93 91.86C76.314 92.1307 75.586 92.266 74.746 92.266ZM83.9136 92.266C83.2509 92.266 82.6769 92.154 82.1916 91.93C81.7156 91.706 81.3143 91.4073 80.9876 91.034C80.6703 90.6607 80.4323 90.2407 80.2736 89.774C80.1149 89.3073 80.0356 88.8313 80.0356 88.346V88.08C80.0356 87.5667 80.1149 87.0767 80.2736 86.61C80.4416 86.134 80.6889 85.714 81.0156 85.35C81.3423 84.9767 81.7436 84.6827 82.2196 84.468C82.7049 84.244 83.2649 84.132 83.8996 84.132C84.5623 84.132 85.1549 84.2627 85.6776 84.524C86.2003 84.776 86.6156 85.1307 86.9236 85.588C87.2409 86.0453 87.4183 86.5773 87.4556 87.184H85.5656C85.5189 86.792 85.3509 86.4653 85.0616 86.204C84.7816 85.9427 84.3943 85.812 83.8996 85.812C83.4703 85.812 83.1109 85.9147 82.8216 86.12C82.5416 86.3253 82.3316 86.61 82.1916 86.974C82.0516 87.3287 81.9816 87.7393 81.9816 88.206C81.9816 88.654 82.0469 89.06 82.1776 89.424C82.3176 89.788 82.5276 90.0727 82.8076 90.278C83.0969 90.4833 83.4656 90.586 83.9136 90.586C84.2496 90.586 84.5389 90.5253 84.7816 90.404C85.0243 90.2827 85.2156 90.1147 85.3556 89.9C85.5049 89.6853 85.5983 89.4427 85.6356 89.172H87.5256C87.4883 89.788 87.3063 90.3293 86.9796 90.796C86.6623 91.2533 86.2376 91.6127 85.7056 91.874C85.1829 92.1353 84.5856 92.266 83.9136 92.266ZM89.0845 92V81.78H91.0305V87.744H90.6945C90.6945 86.9787 90.7925 86.33 90.9885 85.798C91.1845 85.266 91.4738 84.86 91.8565 84.58C92.2485 84.3 92.7432 84.16 93.3405 84.16H93.4245C94.2925 84.16 94.9505 84.4587 95.3985 85.056C95.8465 85.6533 96.0705 86.5213 96.0705 87.66V92H94.1245V87.478C94.1245 86.9927 93.9845 86.61 93.7045 86.33C93.4338 86.05 93.0745 85.91 92.6265 85.91C92.1505 85.91 91.7632 86.0687 91.4645 86.386C91.1752 86.694 91.0305 87.1 91.0305 87.604V92H89.0845ZM101.817 92.266C101.145 92.266 100.552 92.1587 100.039 91.944C99.5253 91.7293 99.0913 91.44 98.7366 91.076C98.382 90.7027 98.1113 90.2827 97.9246 89.816C97.7473 89.3493 97.6586 88.864 97.6586 88.36V88.066C97.6586 87.5433 97.752 87.0487 97.9386 86.582C98.1346 86.106 98.41 85.686 98.7646 85.322C99.1286 84.9487 99.5673 84.6593 100.081 84.454C100.594 84.2393 101.173 84.132 101.817 84.132C102.461 84.132 103.039 84.2393 103.553 84.454C104.066 84.6593 104.5 84.9487 104.855 85.322C105.219 85.686 105.494 86.106 105.681 86.582C105.867 87.0487 105.961 87.5433 105.961 88.066V88.36C105.961 88.864 105.867 89.3493 105.681 89.816C105.503 90.2827 105.237 90.7027 104.883 91.076C104.528 91.44 104.094 91.7293 103.581 91.944C103.067 92.1587 102.479 92.266 101.817 92.266ZM101.817 90.6C102.293 90.6 102.694 90.4973 103.021 90.292C103.347 90.0773 103.595 89.7927 103.763 89.438C103.931 89.074 104.015 88.6633 104.015 88.206C104.015 87.7393 103.926 87.3287 103.749 86.974C103.581 86.61 103.329 86.3253 102.993 86.12C102.666 85.9053 102.274 85.798 101.817 85.798C101.359 85.798 100.963 85.9053 100.627 86.12C100.3 86.3253 100.048 86.61 99.8706 86.974C99.6933 87.3287 99.6046 87.7393 99.6046 88.206C99.6046 88.6633 99.6886 89.074 99.8566 89.438C100.034 89.7927 100.286 90.0773 100.613 90.292C100.939 90.4973 101.341 90.6 101.817 90.6ZM111.319 92.266C110.647 92.266 110.054 92.1587 109.541 91.944C109.027 91.7293 108.593 91.44 108.239 91.076C107.884 90.7027 107.613 90.2827 107.427 89.816C107.249 89.3493 107.161 88.864 107.161 88.36V88.066C107.161 87.5433 107.254 87.0487 107.441 86.582C107.637 86.106 107.912 85.686 108.267 85.322C108.631 84.9487 109.069 84.6593 109.583 84.454C110.096 84.2393 110.675 84.132 111.319 84.132C111.963 84.132 112.541 84.2393 113.055 84.454C113.568 84.6593 114.002 84.9487 114.357 85.322C114.721 85.686 114.996 86.106 115.183 86.582C115.369 87.0487 115.463 87.5433 115.463 88.066V88.36C115.463 88.864 115.369 89.3493 115.183 89.816C115.005 90.2827 114.739 90.7027 114.385 91.076C114.03 91.44 113.596 91.7293 113.083 91.944C112.569 92.1587 111.981 92.266 111.319 92.266ZM111.319 90.6C111.795 90.6 112.196 90.4973 112.523 90.292C112.849 90.0773 113.097 89.7927 113.265 89.438C113.433 89.074 113.517 88.6633 113.517 88.206C113.517 87.7393 113.428 87.3287 113.251 86.974C113.083 86.61 112.831 86.3253 112.495 86.12C112.168 85.9053 111.776 85.798 111.319 85.798C110.861 85.798 110.465 85.9053 110.129 86.12C109.802 86.3253 109.55 86.61 109.373 86.974C109.195 87.3287 109.107 87.7393 109.107 88.206C109.107 88.6633 109.191 89.074 109.359 89.438C109.536 89.7927 109.788 90.0773 110.115 90.292C110.441 90.4973 110.843 90.6 111.319 90.6ZM117.265 92V81.78H119.211V92H117.265ZM116.313 83.236V81.78H119.211V83.236H116.313Z" fill="white"/>
<rect x="28" y="125" width="139" height="3" fill="#272633"/>
<rect x="28" y="125" width="32" height="3" fill="#FF7667"/>
<path d="M69.43 104.38V103.02L72.37 98.51L73.24 99.14L70.57 103.25L70.67 103.44H75.28V104.38H69.43ZM73.25 106V100.8H74.35V106H73.25ZM80.8102 106.06C80.3636 106.06 79.9869 106 79.6802 105.88C79.3736 105.76 79.1402 105.553 78.9802 105.26C78.8269 104.967 78.7502 104.57 78.7502 104.07V99.04H79.8602V104.17C79.8602 104.45 79.9336 104.667 80.0802 104.82C80.2336 104.967 80.4469 105.04 80.7202 105.04H81.6202V106.06H80.8102ZM77.8602 101.48V100.61H81.6202V101.48H77.8602ZM86.1178 106V104.39H85.9278V102.57C85.9278 102.237 85.8411 101.983 85.6678 101.81C85.4945 101.637 85.2378 101.55 84.8978 101.55C84.7111 101.55 84.5045 101.553 84.2778 101.56C84.0511 101.567 83.8278 101.577 83.6078 101.59C83.3945 101.597 83.2045 101.607 83.0378 101.62V100.61C83.1845 100.597 83.3445 100.587 83.5178 100.58C83.6978 100.567 83.8811 100.557 84.0678 100.55C84.2611 100.543 84.4445 100.54 84.6178 100.54C85.1645 100.54 85.6178 100.61 85.9778 100.75C86.3378 100.89 86.6045 101.113 86.7778 101.42C86.9578 101.72 87.0478 102.123 87.0478 102.63V106H86.1178ZM84.3678 106.14C83.9745 106.14 83.6311 106.073 83.3378 105.94C83.0445 105.8 82.8178 105.6 82.6578 105.34C82.4978 105.073 82.4178 104.757 82.4178 104.39C82.4178 104.003 82.5078 103.683 82.6878 103.43C82.8745 103.177 83.1378 102.987 83.4778 102.86C83.8178 102.733 84.2245 102.67 84.6978 102.67H86.0478V103.44H84.6678C84.3145 103.44 84.0445 103.527 83.8578 103.7C83.6711 103.867 83.5778 104.087 83.5778 104.36C83.5778 104.633 83.6711 104.853 83.8578 105.02C84.0445 105.18 84.3145 105.26 84.6678 105.26C84.8745 105.26 85.0711 105.223 85.2578 105.15C85.4445 105.07 85.5978 104.94 85.7178 104.76C85.8445 104.58 85.9145 104.327 85.9278 104L86.2278 104.39C86.1945 104.77 86.1011 105.09 85.9478 105.35C85.8011 105.603 85.5945 105.8 85.3278 105.94C85.0678 106.073 84.7478 106.14 84.3678 106.14ZM90.5384 106.16C89.8117 106.16 89.245 106.007 88.8384 105.7C88.4384 105.393 88.2284 104.97 88.2084 104.43H89.2884C89.3017 104.63 89.405 104.813 89.5984 104.98C89.7917 105.147 90.1084 105.23 90.5484 105.23C90.9217 105.23 91.215 105.157 91.4284 105.01C91.6417 104.863 91.7484 104.68 91.7484 104.46C91.7484 104.26 91.6684 104.103 91.5084 103.99C91.355 103.87 91.0917 103.79 90.7184 103.75L90.1884 103.7C89.635 103.64 89.195 103.477 88.8684 103.21C88.5484 102.943 88.3884 102.583 88.3884 102.13C88.3884 101.77 88.4784 101.467 88.6584 101.22C88.8384 100.973 89.085 100.783 89.3984 100.65C89.7184 100.517 90.085 100.45 90.4984 100.45C91.1384 100.45 91.655 100.593 92.0484 100.88C92.4417 101.16 92.645 101.573 92.6584 102.12H91.5884C91.575 101.913 91.4784 101.74 91.2984 101.6C91.1184 101.46 90.8517 101.39 90.4984 101.39C90.165 101.39 89.9084 101.457 89.7284 101.59C89.555 101.723 89.4684 101.893 89.4684 102.1C89.4684 102.287 89.535 102.433 89.6684 102.54C89.8017 102.647 90.0184 102.717 90.3184 102.75L90.8484 102.8C91.455 102.867 91.935 103.037 92.2884 103.31C92.6484 103.577 92.8284 103.95 92.8284 104.43C92.8284 104.777 92.7317 105.08 92.5384 105.34C92.345 105.6 92.075 105.803 91.7284 105.95C91.3884 106.09 90.9917 106.16 90.5384 106.16ZM97.848 106L95.928 103.49H95.088L97.458 100.61H98.698L96.518 103.23L96.568 102.63L99.188 106H97.848ZM94.108 106V98.7H95.278V106H94.108ZM102.272 108V100.61H103.202V102.94L103.022 102.93C103.055 102.363 103.175 101.897 103.382 101.53C103.589 101.163 103.862 100.89 104.202 100.71C104.542 100.53 104.915 100.44 105.322 100.44C105.709 100.44 106.059 100.513 106.372 100.66C106.685 100.8 106.955 100.997 107.182 101.25C107.409 101.503 107.579 101.797 107.692 102.13C107.812 102.463 107.872 102.823 107.872 103.21V103.4C107.872 103.78 107.812 104.14 107.692 104.48C107.572 104.813 107.399 105.107 107.172 105.36C106.945 105.613 106.675 105.813 106.362 105.96C106.049 106.107 105.699 106.18 105.312 106.18C104.919 106.18 104.552 106.097 104.212 105.93C103.872 105.763 103.592 105.497 103.372 105.13C103.152 104.763 103.029 104.287 103.002 103.7L103.442 104.44V108H102.272ZM105.062 105.17C105.389 105.17 105.675 105.093 105.922 104.94C106.169 104.78 106.359 104.56 106.492 104.28C106.632 103.993 106.702 103.667 106.702 103.3C106.702 102.933 106.632 102.61 106.492 102.33C106.359 102.05 106.169 101.833 105.922 101.68C105.682 101.52 105.395 101.44 105.062 101.44C104.769 101.44 104.495 101.507 104.242 101.64C103.989 101.773 103.785 101.967 103.632 102.22C103.479 102.467 103.402 102.767 103.402 103.12V103.55C103.402 103.89 103.479 104.183 103.632 104.43C103.792 104.67 103.999 104.853 104.252 104.98C104.505 105.107 104.775 105.17 105.062 105.17ZM109.275 106V98.7H110.455V106H109.275ZM108.565 99.6V98.7H110.455V99.6H108.565ZM114.024 106.16C113.391 106.16 112.904 105.957 112.564 105.55C112.224 105.137 112.054 104.53 112.054 103.73V100.61H113.224V103.89C113.224 104.263 113.328 104.56 113.534 104.78C113.741 104.993 114.021 105.1 114.374 105.1C114.734 105.1 115.028 104.987 115.254 104.76C115.488 104.527 115.604 104.21 115.604 103.81V100.61H116.774V106H115.844V103.7H115.964C115.964 104.24 115.891 104.693 115.744 105.06C115.604 105.42 115.394 105.693 115.114 105.88C114.841 106.067 114.494 106.16 114.074 106.16H114.024ZM120.372 106.16C119.646 106.16 119.079 106.007 118.672 105.7C118.272 105.393 118.062 104.97 118.042 104.43H119.122C119.136 104.63 119.239 104.813 119.432 104.98C119.626 105.147 119.942 105.23 120.382 105.23C120.756 105.23 121.049 105.157 121.262 105.01C121.476 104.863 121.582 104.68 121.582 104.46C121.582 104.26 121.502 104.103 121.342 103.99C121.189 103.87 120.926 103.79 120.552 103.75L120.022 103.7C119.469 103.64 119.029 103.477 118.702 103.21C118.382 102.943 118.222 102.583 118.222 102.13C118.222 101.77 118.312 101.467 118.492 101.22C118.672 100.973 118.919 100.783 119.232 100.65C119.552 100.517 119.919 100.45 120.332 100.45C120.972 100.45 121.489 100.593 121.882 100.88C122.276 101.16 122.479 101.573 122.492 102.12H121.422C121.409 101.913 121.312 101.74 121.132 101.6C120.952 101.46 120.686 101.39 120.332 101.39C119.999 101.39 119.742 101.457 119.562 101.59C119.389 101.723 119.302 101.893 119.302 102.1C119.302 102.287 119.369 102.433 119.502 102.54C119.636 102.647 119.852 102.717 120.152 102.75L120.682 102.8C121.289 102.867 121.769 103.037 122.122 103.31C122.482 103.577 122.662 103.95 122.662 104.43C122.662 104.777 122.566 105.08 122.372 105.34C122.179 105.6 121.909 105.803 121.562 105.95C121.222 106.09 120.826 106.16 120.372 106.16ZM128.369 106.06C127.922 106.06 127.545 106 127.239 105.88C126.932 105.76 126.699 105.553 126.539 105.26C126.385 104.967 126.309 104.57 126.309 104.07V99.04H127.419V104.17C127.419 104.45 127.492 104.667 127.639 104.82C127.792 104.967 128.005 105.04 128.279 105.04H129.179V106.06H128.369ZM125.419 101.48V100.61H129.179V101.48H125.419ZM132.947 106.18C132.473 106.18 132.057 106.103 131.697 105.95C131.337 105.79 131.033 105.58 130.787 105.32C130.54 105.06 130.353 104.767 130.227 104.44C130.1 104.107 130.037 103.763 130.037 103.41V103.21C130.037 102.857 130.1 102.513 130.227 102.18C130.36 101.847 130.55 101.55 130.797 101.29C131.05 101.023 131.357 100.813 131.717 100.66C132.077 100.507 132.487 100.43 132.947 100.43C133.407 100.43 133.813 100.507 134.167 100.66C134.527 100.813 134.833 101.023 135.087 101.29C135.34 101.55 135.53 101.847 135.657 102.18C135.79 102.513 135.857 102.857 135.857 103.21V103.41C135.857 103.763 135.793 104.107 135.667 104.44C135.54 104.767 135.353 105.06 135.107 105.32C134.86 105.58 134.557 105.79 134.197 105.95C133.837 106.103 133.42 106.18 132.947 106.18ZM132.947 105.16C133.313 105.16 133.627 105.08 133.887 104.92C134.147 104.753 134.343 104.53 134.477 104.25C134.617 103.97 134.687 103.657 134.687 103.31C134.687 102.957 134.617 102.64 134.477 102.36C134.337 102.08 134.137 101.86 133.877 101.7C133.617 101.533 133.307 101.45 132.947 101.45C132.587 101.45 132.277 101.533 132.017 101.7C131.757 101.86 131.557 102.08 131.417 102.36C131.277 102.64 131.207 102.957 131.207 103.31C131.207 103.657 131.273 103.97 131.407 104.25C131.547 104.53 131.747 104.753 132.007 104.92C132.267 105.08 132.58 105.16 132.947 105.16ZM137.194 106V100.61H138.124V102.93H138.014C138.014 102.397 138.081 101.947 138.214 101.58C138.354 101.213 138.561 100.933 138.834 100.74C139.114 100.547 139.461 100.45 139.874 100.45H139.924C140.344 100.45 140.691 100.547 140.964 100.74C141.244 100.933 141.451 101.213 141.584 101.58C141.724 101.947 141.794 102.397 141.794 102.93H141.474C141.474 102.397 141.544 101.947 141.684 101.58C141.824 101.213 142.034 100.933 142.314 100.74C142.594 100.547 142.941 100.45 143.354 100.45H143.404C143.824 100.45 144.174 100.547 144.454 100.74C144.734 100.933 144.944 101.213 145.084 101.58C145.224 101.947 145.294 102.397 145.294 102.93V106H144.124V102.76C144.124 102.367 144.024 102.06 143.824 101.84C143.631 101.62 143.361 101.51 143.014 101.51C142.654 101.51 142.367 101.627 142.154 101.86C141.941 102.087 141.834 102.403 141.834 102.81V106H140.654V102.76C140.654 102.367 140.557 102.06 140.364 101.84C140.171 101.62 139.901 101.51 139.554 101.51C139.194 101.51 138.904 101.627 138.684 101.86C138.471 102.087 138.364 102.403 138.364 102.81V106H137.194ZM149.451 106.18C148.977 106.18 148.561 106.103 148.201 105.95C147.841 105.79 147.537 105.58 147.291 105.32C147.044 105.06 146.857 104.767 146.731 104.44C146.604 104.107 146.541 103.763 146.541 103.41V103.21C146.541 102.857 146.604 102.513 146.731 102.18C146.864 101.847 147.054 101.55 147.301 101.29C147.554 101.023 147.861 100.813 148.221 100.66C148.581 100.507 148.991 100.43 149.451 100.43C149.911 100.43 150.317 100.507 150.671 100.66C151.031 100.813 151.337 101.023 151.591 101.29C151.844 101.55 152.034 101.847 152.161 102.18C152.294 102.513 152.361 102.857 152.361 103.21V103.41C152.361 103.763 152.297 104.107 152.171 104.44C152.044 104.767 151.857 105.06 151.611 105.32C151.364 105.58 151.061 105.79 150.701 105.95C150.341 106.103 149.924 106.18 149.451 106.18ZM149.451 105.16C149.817 105.16 150.131 105.08 150.391 104.92C150.651 104.753 150.847 104.53 150.981 104.25C151.121 103.97 151.191 103.657 151.191 103.31C151.191 102.957 151.121 102.64 150.981 102.36C150.841 102.08 150.641 101.86 150.381 101.7C150.121 101.533 149.811 101.45 149.451 101.45C149.091 101.45 148.781 101.533 148.521 101.7C148.261 101.86 148.061 102.08 147.921 102.36C147.781 102.64 147.711 102.957 147.711 103.31C147.711 103.657 147.777 103.97 147.911 104.25C148.051 104.53 148.251 104.753 148.511 104.92C148.771 105.08 149.084 105.16 149.451 105.16ZM153.698 106V100.61H154.628V102.86H154.588C154.588 102.087 154.758 101.51 155.098 101.13C155.438 100.743 155.941 100.55 156.608 100.55H156.798V101.58H156.438C155.931 101.58 155.541 101.717 155.268 101.99C155.001 102.257 154.868 102.64 154.868 103.14V106H153.698ZM157.839 106V100.61H158.769V102.86H158.729C158.729 102.087 158.899 101.51 159.239 101.13C159.579 100.743 160.082 100.55 160.749 100.55H160.939V101.58H160.579C160.072 101.58 159.682 101.717 159.409 101.99C159.142 102.257 159.009 102.64 159.009 103.14V106H157.839ZM164.46 106.18C163.987 106.18 163.57 106.103 163.21 105.95C162.85 105.79 162.547 105.58 162.3 105.32C162.054 105.06 161.867 104.767 161.74 104.44C161.614 104.107 161.55 103.763 161.55 103.41V103.21C161.55 102.857 161.614 102.513 161.74 102.18C161.874 101.847 162.064 101.55 162.31 101.29C162.564 101.023 162.87 100.813 163.23 100.66C163.59 100.507 164 100.43 164.46 100.43C164.92 100.43 165.327 100.507 165.68 100.66C166.04 100.813 166.347 101.023 166.6 101.29C166.854 101.55 167.044 101.847 167.17 102.18C167.304 102.513 167.37 102.857 167.37 103.21V103.41C167.37 103.763 167.307 104.107 167.18 104.44C167.054 104.767 166.867 105.06 166.62 105.32C166.374 105.58 166.07 105.79 165.71 105.95C165.35 106.103 164.934 106.18 164.46 106.18ZM164.46 105.16C164.827 105.16 165.14 105.08 165.4 104.92C165.66 104.753 165.857 104.53 165.99 104.25C166.13 103.97 166.2 103.657 166.2 103.31C166.2 102.957 166.13 102.64 165.99 102.36C165.85 102.08 165.65 101.86 165.39 101.7C165.13 101.533 164.82 101.45 164.46 101.45C164.1 101.45 163.79 101.533 163.53 101.7C163.27 101.86 163.07 102.08 162.93 102.36C162.79 102.64 162.72 102.957 162.72 103.31C162.72 103.657 162.787 103.97 162.92 104.25C163.06 104.53 163.26 104.753 163.52 104.92C163.78 105.08 164.094 105.16 164.46 105.16ZM170.31 106L171.36 100.79H172.81L174.04 106H173.08L171.84 100.82H172.29L171.21 106H170.31ZM169.85 106V105.05H170.96V106H169.85ZM169.47 106L167.97 100.61H169.11L170.54 106H169.47ZM173.35 106V105.05H174.46V106H173.35ZM173.8 106L175.06 100.61H176.13L174.81 106H173.8ZM176.75 106V104.59H178.11V106H176.75Z" fill="#858B93"/>
<path d="M176.95 130V123.38L177.39 123.72H175.39V122.7H178.13V130H176.95ZM179.459 130.6L181.509 122.2H182.649L180.599 130.6H179.459ZM185.911 130.18C185.358 130.18 184.884 130.077 184.491 129.87C184.098 129.657 183.798 129.373 183.591 129.02C183.391 128.66 183.291 128.267 183.291 127.84H184.441C184.441 128.247 184.571 128.57 184.831 128.81C185.098 129.05 185.458 129.17 185.911 129.17C186.211 129.17 186.468 129.117 186.681 129.01C186.901 128.897 187.071 128.74 187.191 128.54C187.311 128.333 187.371 128.093 187.371 127.82C187.371 127.413 187.241 127.083 186.981 126.83C186.721 126.57 186.364 126.44 185.911 126.44C185.711 126.44 185.534 126.467 185.381 126.52C185.234 126.573 185.104 126.64 184.991 126.72L184.421 125.73L187.021 123.89L186.921 123.71H183.581V122.7H188.191V124.09L185.801 125.75L185.061 125.7C185.181 125.66 185.311 125.627 185.451 125.6C185.598 125.573 185.761 125.56 185.941 125.56C186.488 125.56 186.951 125.66 187.331 125.86C187.718 126.053 188.014 126.317 188.221 126.65C188.428 126.983 188.531 127.357 188.531 127.77V127.9C188.531 128.307 188.428 128.683 188.221 129.03C188.014 129.377 187.718 129.657 187.331 129.87C186.944 130.077 186.471 130.18 185.911 130.18Z" fill="#858B93"/>
<rect x="15" y="150" width="188" height="78" rx="13" fill="#14181B"/>
<rect x="27" y="164" width="33" height="32" rx="12" fill="#AE8FF9"/>
<path d="M71.968 174.864V173.142H73.956C74.3573 173.142 74.6933 173.063 74.964 172.904C75.244 172.745 75.454 172.526 75.594 172.246C75.7433 171.966 75.818 171.644 75.818 171.28C75.818 170.916 75.7433 170.594 75.594 170.314C75.454 170.034 75.244 169.819 74.964 169.67C74.6933 169.511 74.3573 169.432 73.956 169.432H71.968V167.71H73.788C74.6467 167.71 75.3747 167.85 75.972 168.13C76.5787 168.41 77.0407 168.811 77.358 169.334C77.6753 169.847 77.834 170.459 77.834 171.168V171.392C77.834 172.101 77.6753 172.717 77.358 173.24C77.0407 173.753 76.5787 174.155 75.972 174.444C75.3747 174.724 74.6467 174.864 73.788 174.864H71.968ZM70.26 178V167.71H72.248V178H70.26ZM82.6135 178.266C81.9601 178.266 81.3861 178.154 80.8915 177.93C80.4061 177.706 80.0001 177.407 79.6735 177.034C79.3561 176.651 79.1135 176.227 78.9455 175.76C78.7868 175.293 78.7075 174.817 78.7075 174.332V174.066C78.7075 173.562 78.7868 173.077 78.9455 172.61C79.1135 172.134 79.3561 171.714 79.6735 171.35C80.0001 170.977 80.4015 170.683 80.8775 170.468C81.3535 170.244 81.9041 170.132 82.5295 170.132C83.3508 170.132 84.0368 170.314 84.5875 170.678C85.1475 171.033 85.5675 171.504 85.8475 172.092C86.1275 172.671 86.2675 173.296 86.2675 173.968V174.668H79.5335V173.478H85.0495L84.4475 174.066C84.4475 173.581 84.3775 173.165 84.2375 172.82C84.0975 172.475 83.8828 172.209 83.5935 172.022C83.3135 171.835 82.9588 171.742 82.5295 171.742C82.1001 171.742 81.7361 171.84 81.4375 172.036C81.1388 172.232 80.9101 172.517 80.7515 172.89C80.6021 173.254 80.5275 173.693 80.5275 174.206C80.5275 174.682 80.6021 175.107 80.7515 175.48C80.9008 175.844 81.1295 176.133 81.4375 176.348C81.7455 176.553 82.1375 176.656 82.6135 176.656C83.0895 176.656 83.4768 176.563 83.7755 176.376C84.0741 176.18 84.2655 175.942 84.3495 175.662H86.1415C86.0295 176.185 85.8148 176.642 85.4975 177.034C85.1801 177.426 84.7741 177.729 84.2795 177.944C83.7941 178.159 83.2388 178.266 82.6135 178.266ZM87.8931 178V170.398H89.4331V173.618H89.3911C89.3911 172.526 89.6244 171.7 90.0911 171.14C90.5578 170.58 91.2438 170.3 92.1491 170.3H92.4291V171.994H91.8971C91.2438 171.994 90.7351 172.171 90.3711 172.526C90.0164 172.871 89.8391 173.375 89.8391 174.038V178H87.8931ZM96.489 178.238C95.4437 178.238 94.6223 178.019 94.025 177.58C93.437 177.132 93.129 176.516 93.101 175.732H94.851C94.879 175.993 95.0237 176.231 95.285 176.446C95.5463 176.661 95.957 176.768 96.517 176.768C96.9837 176.768 97.3523 176.684 97.623 176.516C97.903 176.348 98.043 176.119 98.043 175.83C98.043 175.578 97.9357 175.377 97.721 175.228C97.5157 175.079 97.161 174.981 96.657 174.934L95.985 174.864C95.1357 174.771 94.4823 174.528 94.025 174.136C93.5677 173.744 93.339 173.221 93.339 172.568C93.339 172.045 93.4697 171.607 93.731 171.252C93.9923 170.897 94.3517 170.631 94.809 170.454C95.2757 170.267 95.8077 170.174 96.405 170.174C97.3383 170.174 98.0943 170.379 98.673 170.79C99.2517 171.201 99.555 171.803 99.583 172.596H97.833C97.8143 172.335 97.6837 172.111 97.441 171.924C97.1983 171.737 96.8483 171.644 96.391 171.644C95.9803 171.644 95.663 171.723 95.439 171.882C95.215 172.041 95.103 172.246 95.103 172.498C95.103 172.741 95.1917 172.927 95.369 173.058C95.5557 173.189 95.8543 173.277 96.265 173.324L96.937 173.394C97.833 173.487 98.533 173.735 99.037 174.136C99.5503 174.537 99.807 175.079 99.807 175.76C99.807 176.264 99.667 176.703 99.387 177.076C99.1163 177.44 98.7337 177.725 98.239 177.93C97.7443 178.135 97.161 178.238 96.489 178.238ZM105.069 178.266C104.397 178.266 103.804 178.159 103.291 177.944C102.777 177.729 102.343 177.44 101.989 177.076C101.634 176.703 101.363 176.283 101.177 175.816C100.999 175.349 100.911 174.864 100.911 174.36V174.066C100.911 173.543 101.004 173.049 101.191 172.582C101.387 172.106 101.662 171.686 102.017 171.322C102.381 170.949 102.819 170.659 103.333 170.454C103.846 170.239 104.425 170.132 105.069 170.132C105.713 170.132 106.291 170.239 106.805 170.454C107.318 170.659 107.752 170.949 108.107 171.322C108.471 171.686 108.746 172.106 108.933 172.582C109.119 173.049 109.213 173.543 109.213 174.066V174.36C109.213 174.864 109.119 175.349 108.933 175.816C108.755 176.283 108.489 176.703 108.135 177.076C107.78 177.44 107.346 177.729 106.833 177.944C106.319 178.159 105.731 178.266 105.069 178.266ZM105.069 176.6C105.545 176.6 105.946 176.497 106.273 176.292C106.599 176.077 106.847 175.793 107.015 175.438C107.183 175.074 107.267 174.663 107.267 174.206C107.267 173.739 107.178 173.329 107.001 172.974C106.833 172.61 106.581 172.325 106.245 172.12C105.918 171.905 105.526 171.798 105.069 171.798C104.611 171.798 104.215 171.905 103.879 172.12C103.552 172.325 103.3 172.61 103.123 172.974C102.945 173.329 102.857 173.739 102.857 174.206C102.857 174.663 102.941 175.074 103.109 175.438C103.286 175.793 103.538 176.077 103.865 176.292C104.191 176.497 104.593 176.6 105.069 176.6ZM110.917 178V170.398H112.457V173.66H112.317C112.317 172.885 112.419 172.241 112.625 171.728C112.83 171.205 113.133 170.813 113.535 170.552C113.945 170.291 114.454 170.16 115.061 170.16H115.145C116.05 170.16 116.736 170.454 117.203 171.042C117.669 171.621 117.903 172.489 117.903 173.646V178H115.957V173.478C115.957 173.011 115.821 172.633 115.551 172.344C115.289 172.055 114.925 171.91 114.459 171.91C113.983 171.91 113.595 172.059 113.297 172.358C113.007 172.647 112.863 173.039 112.863 173.534V178H110.917ZM124.601 178V175.746H124.279V173.24C124.279 172.801 124.171 172.475 123.957 172.26C123.742 172.045 123.411 171.938 122.963 171.938C122.729 171.938 122.449 171.943 122.123 171.952C121.796 171.961 121.465 171.975 121.129 171.994C120.802 172.003 120.508 172.017 120.247 172.036V170.384C120.461 170.365 120.704 170.347 120.975 170.328C121.245 170.309 121.521 170.3 121.801 170.3C122.09 170.291 122.361 170.286 122.613 170.286C123.397 170.286 124.045 170.389 124.559 170.594C125.081 170.799 125.473 171.121 125.735 171.56C126.005 171.999 126.141 172.573 126.141 173.282V178H124.601ZM122.151 178.196C121.6 178.196 121.115 178.098 120.695 177.902C120.284 177.706 119.962 177.426 119.729 177.062C119.505 176.698 119.393 176.259 119.393 175.746C119.393 175.186 119.528 174.729 119.799 174.374C120.079 174.019 120.466 173.753 120.961 173.576C121.465 173.399 122.053 173.31 122.725 173.31H124.489V174.472H122.697C122.249 174.472 121.903 174.584 121.661 174.808C121.427 175.023 121.311 175.303 121.311 175.648C121.311 175.993 121.427 176.273 121.661 176.488C121.903 176.703 122.249 176.81 122.697 176.81C122.967 176.81 123.215 176.763 123.439 176.67C123.672 176.567 123.863 176.399 124.013 176.166C124.171 175.923 124.26 175.597 124.279 175.186L124.755 175.732C124.708 176.264 124.577 176.712 124.363 177.076C124.157 177.44 123.868 177.72 123.495 177.916C123.131 178.103 122.683 178.196 122.151 178.196ZM128.323 178V167.78H130.269V178H128.323ZM127.371 169.236V167.78H130.269V169.236H127.371Z" fill="white"/>
<rect x="27" y="210" width="139" height="3" fill="#272633"/>
<rect x="27" y="210" width="32" height="3" fill="#AE8FF9"/>
<path d="M70.95 194V187.38L71.39 187.72H69.39V186.7H72.13V194H70.95ZM78.5153 194.06C78.0686 194.06 77.692 194 77.3853 193.88C77.0786 193.76 76.8453 193.553 76.6853 193.26C76.532 192.967 76.4553 192.57 76.4553 192.07V187.04H77.5653V192.17C77.5653 192.45 77.6386 192.667 77.7853 192.82C77.9386 192.967 78.152 193.04 78.4253 193.04H79.3253V194.06H78.5153ZM75.5653 189.48V188.61H79.3253V189.48H75.5653ZM83.8229 194V192.39H83.6329V190.57C83.6329 190.237 83.5462 189.983 83.3729 189.81C83.1996 189.637 82.9429 189.55 82.6029 189.55C82.4162 189.55 82.2096 189.553 81.9829 189.56C81.7562 189.567 81.5329 189.577 81.3129 189.59C81.0996 189.597 80.9096 189.607 80.7429 189.62V188.61C80.8896 188.597 81.0496 188.587 81.2229 188.58C81.4029 188.567 81.5862 188.557 81.7729 188.55C81.9662 188.543 82.1496 188.54 82.3229 188.54C82.8696 188.54 83.3229 188.61 83.6829 188.75C84.0429 188.89 84.3096 189.113 84.4829 189.42C84.6629 189.72 84.7529 190.123 84.7529 190.63V194H83.8229ZM82.0729 194.14C81.6796 194.14 81.3362 194.073 81.0429 193.94C80.7496 193.8 80.5229 193.6 80.3629 193.34C80.2029 193.073 80.1229 192.757 80.1229 192.39C80.1229 192.003 80.2129 191.683 80.3929 191.43C80.5796 191.177 80.8429 190.987 81.1829 190.86C81.5229 190.733 81.9296 190.67 82.4029 190.67H83.7529V191.44H82.3729C82.0196 191.44 81.7496 191.527 81.5629 191.7C81.3762 191.867 81.2829 192.087 81.2829 192.36C81.2829 192.633 81.3762 192.853 81.5629 193.02C81.7496 193.18 82.0196 193.26 82.3729 193.26C82.5796 193.26 82.7762 193.223 82.9629 193.15C83.1496 193.07 83.3029 192.94 83.4229 192.76C83.5496 192.58 83.6196 192.327 83.6329 192L83.9329 192.39C83.8996 192.77 83.8062 193.09 83.6529 193.35C83.5062 193.603 83.2996 193.8 83.0329 193.94C82.7729 194.073 82.4529 194.14 82.0729 194.14ZM88.2434 194.16C87.5168 194.16 86.9501 194.007 86.5434 193.7C86.1434 193.393 85.9334 192.97 85.9134 192.43H86.9934C87.0068 192.63 87.1101 192.813 87.3034 192.98C87.4968 193.147 87.8134 193.23 88.2534 193.23C88.6268 193.23 88.9201 193.157 89.1334 193.01C89.3468 192.863 89.4534 192.68 89.4534 192.46C89.4534 192.26 89.3734 192.103 89.2134 191.99C89.0601 191.87 88.7968 191.79 88.4234 191.75L87.8934 191.7C87.3401 191.64 86.9001 191.477 86.5734 191.21C86.2534 190.943 86.0934 190.583 86.0934 190.13C86.0934 189.77 86.1834 189.467 86.3634 189.22C86.5434 188.973 86.7901 188.783 87.1034 188.65C87.4234 188.517 87.7901 188.45 88.2034 188.45C88.8434 188.45 89.3601 188.593 89.7534 188.88C90.1468 189.16 90.3501 189.573 90.3634 190.12H89.2934C89.2801 189.913 89.1834 189.74 89.0034 189.6C88.8234 189.46 88.5568 189.39 88.2034 189.39C87.8701 189.39 87.6134 189.457 87.4334 189.59C87.2601 189.723 87.1734 189.893 87.1734 190.1C87.1734 190.287 87.2401 190.433 87.3734 190.54C87.5068 190.647 87.7234 190.717 88.0234 190.75L88.5534 190.8C89.1601 190.867 89.6401 191.037 89.9934 191.31C90.3534 191.577 90.5334 191.95 90.5334 192.43C90.5334 192.777 90.4368 193.08 90.2434 193.34C90.0501 193.6 89.7801 193.803 89.4334 193.95C89.0934 194.09 88.6968 194.16 88.2434 194.16ZM95.5531 194L93.6331 191.49H92.7931L95.1631 188.61H96.4031L94.2231 191.23L94.2731 190.63L96.8931 194H95.5531ZM91.8131 194V186.7H92.9831V194H91.8131ZM99.9772 196V188.61H100.907V190.94L100.727 190.93C100.761 190.363 100.881 189.897 101.087 189.53C101.294 189.163 101.567 188.89 101.907 188.71C102.247 188.53 102.621 188.44 103.027 188.44C103.414 188.44 103.764 188.513 104.077 188.66C104.391 188.8 104.661 188.997 104.887 189.25C105.114 189.503 105.284 189.797 105.397 190.13C105.517 190.463 105.577 190.823 105.577 191.21V191.4C105.577 191.78 105.517 192.14 105.397 192.48C105.277 192.813 105.104 193.107 104.877 193.36C104.651 193.613 104.381 193.813 104.067 193.96C103.754 194.107 103.404 194.18 103.017 194.18C102.624 194.18 102.257 194.097 101.917 193.93C101.577 193.763 101.297 193.497 101.077 193.13C100.857 192.763 100.734 192.287 100.707 191.7L101.147 192.44V196H99.9772ZM102.767 193.17C103.094 193.17 103.381 193.093 103.627 192.94C103.874 192.78 104.064 192.56 104.197 192.28C104.337 191.993 104.407 191.667 104.407 191.3C104.407 190.933 104.337 190.61 104.197 190.33C104.064 190.05 103.874 189.833 103.627 189.68C103.387 189.52 103.101 189.44 102.767 189.44C102.474 189.44 102.201 189.507 101.947 189.64C101.694 189.773 101.491 189.967 101.337 190.22C101.184 190.467 101.107 190.767 101.107 191.12V191.55C101.107 191.89 101.184 192.183 101.337 192.43C101.497 192.67 101.704 192.853 101.957 192.98C102.211 193.107 102.481 193.17 102.767 193.17ZM106.981 194V186.7H108.161V194H106.981ZM106.271 187.6V186.7H108.161V187.6H106.271ZM111.73 194.16C111.096 194.16 110.61 193.957 110.27 193.55C109.93 193.137 109.76 192.53 109.76 191.73V188.61H110.93V191.89C110.93 192.263 111.033 192.56 111.24 192.78C111.446 192.993 111.726 193.1 112.08 193.1C112.44 193.1 112.733 192.987 112.96 192.76C113.193 192.527 113.31 192.21 113.31 191.81V188.61H114.48V194H113.55V191.7H113.67C113.67 192.24 113.596 192.693 113.45 193.06C113.31 193.42 113.1 193.693 112.82 193.88C112.546 194.067 112.2 194.16 111.78 194.16H111.73ZM118.077 194.16C117.351 194.16 116.784 194.007 116.377 193.7C115.977 193.393 115.767 192.97 115.747 192.43H116.827C116.841 192.63 116.944 192.813 117.137 192.98C117.331 193.147 117.647 193.23 118.087 193.23C118.461 193.23 118.754 193.157 118.967 193.01C119.181 192.863 119.287 192.68 119.287 192.46C119.287 192.26 119.207 192.103 119.047 191.99C118.894 191.87 118.631 191.79 118.257 191.75L117.727 191.7C117.174 191.64 116.734 191.477 116.407 191.21C116.087 190.943 115.927 190.583 115.927 190.13C115.927 189.77 116.017 189.467 116.197 189.22C116.377 188.973 116.624 188.783 116.937 188.65C117.257 188.517 117.624 188.45 118.037 188.45C118.677 188.45 119.194 188.593 119.587 188.88C119.981 189.16 120.184 189.573 120.197 190.12H119.127C119.114 189.913 119.017 189.74 118.837 189.6C118.657 189.46 118.391 189.39 118.037 189.39C117.704 189.39 117.447 189.457 117.267 189.59C117.094 189.723 117.007 189.893 117.007 190.1C117.007 190.287 117.074 190.433 117.207 190.54C117.341 190.647 117.557 190.717 117.857 190.75L118.387 190.8C118.994 190.867 119.474 191.037 119.827 191.31C120.187 191.577 120.367 191.95 120.367 192.43C120.367 192.777 120.271 193.08 120.077 193.34C119.884 193.6 119.614 193.803 119.267 193.95C118.927 194.09 118.531 194.16 118.077 194.16ZM126.074 194.06C125.627 194.06 125.251 194 124.944 193.88C124.637 193.76 124.404 193.553 124.244 193.26C124.091 192.967 124.014 192.57 124.014 192.07V187.04H125.124V192.17C125.124 192.45 125.197 192.667 125.344 192.82C125.497 192.967 125.711 193.04 125.984 193.04H126.884V194.06H126.074ZM123.124 189.48V188.61H126.884V189.48H123.124ZM130.652 194.18C130.178 194.18 129.762 194.103 129.402 193.95C129.042 193.79 128.738 193.58 128.492 193.32C128.245 193.06 128.058 192.767 127.932 192.44C127.805 192.107 127.742 191.763 127.742 191.41V191.21C127.742 190.857 127.805 190.513 127.932 190.18C128.065 189.847 128.255 189.55 128.502 189.29C128.755 189.023 129.062 188.813 129.422 188.66C129.782 188.507 130.192 188.43 130.652 188.43C131.112 188.43 131.518 188.507 131.872 188.66C132.232 188.813 132.538 189.023 132.792 189.29C133.045 189.55 133.235 189.847 133.362 190.18C133.495 190.513 133.562 190.857 133.562 191.21V191.41C133.562 191.763 133.498 192.107 133.372 192.44C133.245 192.767 133.058 193.06 132.812 193.32C132.565 193.58 132.262 193.79 131.902 193.95C131.542 194.103 131.125 194.18 130.652 194.18ZM130.652 193.16C131.018 193.16 131.332 193.08 131.592 192.92C131.852 192.753 132.048 192.53 132.182 192.25C132.322 191.97 132.392 191.657 132.392 191.31C132.392 190.957 132.322 190.64 132.182 190.36C132.042 190.08 131.842 189.86 131.582 189.7C131.322 189.533 131.012 189.45 130.652 189.45C130.292 189.45 129.982 189.533 129.722 189.7C129.462 189.86 129.262 190.08 129.122 190.36C128.982 190.64 128.912 190.957 128.912 191.31C128.912 191.657 128.978 191.97 129.112 192.25C129.252 192.53 129.452 192.753 129.712 192.92C129.972 193.08 130.285 193.16 130.652 193.16ZM137.139 194.18C136.752 194.18 136.399 194.11 136.079 193.97C135.766 193.83 135.489 193.633 135.249 193.38C135.016 193.127 134.836 192.833 134.709 192.5C134.582 192.167 134.519 191.803 134.519 191.41V191.22C134.519 190.833 134.579 190.473 134.699 190.14C134.826 189.8 135.002 189.503 135.229 189.25C135.456 188.997 135.726 188.8 136.039 188.66C136.359 188.513 136.712 188.44 137.099 188.44C137.512 188.44 137.882 188.53 138.209 188.71C138.542 188.883 138.809 189.153 139.009 189.52C139.216 189.88 139.329 190.34 139.349 190.9L138.949 190.35V186.7H140.119V194H139.189V191.66H139.449C139.429 192.24 139.309 192.717 139.089 193.09C138.876 193.463 138.599 193.74 138.259 193.92C137.919 194.093 137.546 194.18 137.139 194.18ZM137.359 193.17C137.659 193.17 137.929 193.103 138.169 192.97C138.416 192.837 138.612 192.643 138.759 192.39C138.912 192.13 138.989 191.827 138.989 191.48V191.05C138.989 190.71 138.912 190.42 138.759 190.18C138.606 189.94 138.406 189.757 138.159 189.63C137.912 189.503 137.642 189.44 137.349 189.44C137.022 189.44 136.732 189.52 136.479 189.68C136.232 189.833 136.039 190.05 135.899 190.33C135.759 190.61 135.689 190.937 135.689 191.31C135.689 191.69 135.759 192.02 135.899 192.3C136.046 192.58 136.246 192.797 136.499 192.95C136.752 193.097 137.039 193.17 137.359 193.17ZM145.092 194V192.39H144.902V190.57C144.902 190.237 144.816 189.983 144.642 189.81C144.469 189.637 144.212 189.55 143.872 189.55C143.686 189.55 143.479 189.553 143.252 189.56C143.026 189.567 142.802 189.577 142.582 189.59C142.369 189.597 142.179 189.607 142.012 189.62V188.61C142.159 188.597 142.319 188.587 142.492 188.58C142.672 188.567 142.856 188.557 143.042 188.55C143.236 188.543 143.419 188.54 143.592 188.54C144.139 188.54 144.592 188.61 144.952 188.75C145.312 188.89 145.579 189.113 145.752 189.42C145.932 189.72 146.022 190.123 146.022 190.63V194H145.092ZM143.342 194.14C142.949 194.14 142.606 194.073 142.312 193.94C142.019 193.8 141.792 193.6 141.632 193.34C141.472 193.073 141.392 192.757 141.392 192.39C141.392 192.003 141.482 191.683 141.662 191.43C141.849 191.177 142.112 190.987 142.452 190.86C142.792 190.733 143.199 190.67 143.672 190.67H145.022V191.44H143.642C143.289 191.44 143.019 191.527 142.832 191.7C142.646 191.867 142.552 192.087 142.552 192.36C142.552 192.633 142.646 192.853 142.832 193.02C143.019 193.18 143.289 193.26 143.642 193.26C143.849 193.26 144.046 193.223 144.232 193.15C144.419 193.07 144.572 192.94 144.692 192.76C144.819 192.58 144.889 192.327 144.902 192L145.202 192.39C145.169 192.77 145.076 193.09 144.922 193.35C144.776 193.603 144.569 193.8 144.302 193.94C144.042 194.073 143.722 194.14 143.342 194.14ZM147.354 196.11V195.08H148.244C148.451 195.08 148.627 195.053 148.774 195C148.921 194.953 149.041 194.867 149.134 194.74C149.227 194.62 149.304 194.457 149.364 194.25L150.934 188.61H152.064L150.364 194.53C150.257 194.903 150.107 195.207 149.914 195.44C149.727 195.673 149.487 195.843 149.194 195.95C148.907 196.057 148.561 196.11 148.154 196.11H147.354ZM149.014 193.88V192.93H150.174V193.88H149.014ZM148.724 193.88L146.894 188.61H148.084L149.834 193.88H148.724ZM152.58 194V192.59H153.94V194H152.58Z" fill="#858B93"/>
<path d="M176.44 215L179.35 208.8L179.27 208.69H175.43V207.7H180.54V208.82L177.68 215H176.44ZM175.43 209.86V207.7H176.41V209.86H175.43ZM181.08 215.6L183.13 207.2H184.27L182.22 215.6H181.08ZM186.452 215V208.38L186.892 208.72H184.892V207.7H187.632V215H186.452ZM192.48 215.18C191.927 215.18 191.454 215.087 191.06 214.9C190.667 214.707 190.347 214.447 190.1 214.12C189.86 213.793 189.684 213.417 189.57 212.99C189.457 212.557 189.4 212.1 189.4 211.62V211.07C189.4 210.403 189.507 209.8 189.72 209.26C189.94 208.72 190.277 208.29 190.73 207.97C191.19 207.65 191.774 207.49 192.48 207.49C193.194 207.49 193.774 207.65 194.22 207.97C194.674 208.29 195.01 208.72 195.23 209.26C195.45 209.8 195.56 210.403 195.56 211.07V211.62C195.56 212.1 195.504 212.557 195.39 212.99C195.277 213.417 195.097 213.793 194.85 214.12C194.61 214.447 194.294 214.707 193.9 214.9C193.514 215.087 193.04 215.18 192.48 215.18ZM192.48 214.09C193.127 214.09 193.6 213.873 193.9 213.44C194.207 213 194.36 212.307 194.36 211.36C194.36 210.367 194.204 209.657 193.89 209.23C193.584 208.797 193.114 208.58 192.48 208.58C191.847 208.58 191.374 208.797 191.06 209.23C190.754 209.657 190.6 210.36 190.6 211.34C190.6 212.293 190.754 212.99 191.06 213.43C191.367 213.87 191.84 214.09 192.48 214.09Z" fill="#858B93"/>
<rect x="15" y="235" width="188" height="78" rx="13" fill="#14181B"/>
<rect x="27" y="251" width="33" height="32" rx="12" fill="#0CCE84"/>
<path d="M71.968 266.056V264.208H74.082C74.614 264.208 75.0853 264.129 75.496 263.97C75.916 263.802 76.2707 263.569 76.56 263.27C76.8493 262.971 77.0687 262.621 77.218 262.22C77.3767 261.809 77.456 261.357 77.456 260.862C77.456 260.349 77.3767 259.891 77.218 259.49C77.0687 259.079 76.8493 258.729 76.56 258.44C76.2707 258.151 75.916 257.931 75.496 257.782C75.0853 257.633 74.614 257.558 74.082 257.558H71.968V255.71H73.956C74.88 255.71 75.6873 255.845 76.378 256.116C77.0687 256.387 77.6427 256.76 78.1 257.236C78.5573 257.703 78.898 258.239 79.122 258.846C79.3553 259.443 79.472 260.064 79.472 260.708V261.016C79.472 261.632 79.3553 262.239 79.122 262.836C78.898 263.433 78.5573 263.975 78.1 264.46C77.6427 264.945 77.0687 265.333 76.378 265.622C75.6873 265.911 74.88 266.056 73.956 266.056H71.968ZM70.26 266.056V255.71H72.248V266.056H70.26ZM84.5002 266.266C83.8469 266.266 83.2729 266.154 82.7782 265.93C82.2929 265.706 81.8869 265.407 81.5602 265.034C81.2429 264.651 81.0002 264.227 80.8322 263.76C80.6735 263.293 80.5942 262.817 80.5942 262.332V262.066C80.5942 261.562 80.6735 261.077 80.8322 260.61C81.0002 260.134 81.2429 259.714 81.5602 259.35C81.8869 258.977 82.2882 258.683 82.7642 258.468C83.2402 258.244 83.7909 258.132 84.4162 258.132C85.2375 258.132 85.9235 258.314 86.4742 258.678C87.0342 259.033 87.4542 259.504 87.7342 260.092C88.0142 260.671 88.1542 261.296 88.1542 261.968V262.668H81.4202V261.478H86.9362L86.3342 262.066C86.3342 261.581 86.2642 261.165 86.1242 260.82C85.9842 260.475 85.7695 260.209 85.4802 260.022C85.2002 259.835 84.8455 259.742 84.4162 259.742C83.9869 259.742 83.6229 259.84 83.3242 260.036C83.0255 260.232 82.7969 260.517 82.6382 260.89C82.4889 261.254 82.4142 261.693 82.4142 262.206C82.4142 262.682 82.4889 263.107 82.6382 263.48C82.7875 263.844 83.0162 264.133 83.3242 264.348C83.6322 264.553 84.0242 264.656 84.5002 264.656C84.9762 264.656 85.3635 264.563 85.6622 264.376C85.9609 264.18 86.1522 263.942 86.2362 263.662H88.0282C87.9162 264.185 87.7015 264.642 87.3842 265.034C87.0669 265.426 86.6609 265.729 86.1662 265.944C85.6809 266.159 85.1255 266.266 84.5002 266.266ZM92.5378 266.238C91.4925 266.238 90.6712 266.019 90.0738 265.58C89.4858 265.132 89.1778 264.516 89.1498 263.732H90.8998C90.9278 263.993 91.0725 264.231 91.3338 264.446C91.5952 264.661 92.0058 264.768 92.5658 264.768C93.0325 264.768 93.4012 264.684 93.6718 264.516C93.9518 264.348 94.0918 264.119 94.0918 263.83C94.0918 263.578 93.9845 263.377 93.7698 263.228C93.5645 263.079 93.2098 262.981 92.7058 262.934L92.0338 262.864C91.1845 262.771 90.5312 262.528 90.0738 262.136C89.6165 261.744 89.3878 261.221 89.3878 260.568C89.3878 260.045 89.5185 259.607 89.7798 259.252C90.0412 258.897 90.4005 258.631 90.8578 258.454C91.3245 258.267 91.8565 258.174 92.4538 258.174C93.3872 258.174 94.1432 258.379 94.7218 258.79C95.3005 259.201 95.6038 259.803 95.6318 260.596H93.8818C93.8632 260.335 93.7325 260.111 93.4898 259.924C93.2472 259.737 92.8972 259.644 92.4398 259.644C92.0292 259.644 91.7118 259.723 91.4878 259.882C91.2638 260.041 91.1518 260.246 91.1518 260.498C91.1518 260.741 91.2405 260.927 91.4178 261.058C91.6045 261.189 91.9032 261.277 92.3138 261.324L92.9858 261.394C93.8818 261.487 94.5818 261.735 95.0858 262.136C95.5992 262.537 95.8558 263.079 95.8558 263.76C95.8558 264.264 95.7158 264.703 95.4358 265.076C95.1652 265.44 94.7825 265.725 94.2878 265.93C93.7932 266.135 93.2098 266.238 92.5378 266.238ZM97.8274 266V258.398H99.7734V266H97.8274ZM96.7634 259.854V258.398H99.7734V259.854H96.7634ZM98.5414 257.488C98.1588 257.488 97.8741 257.39 97.6874 257.194C97.5101 256.989 97.4214 256.737 97.4214 256.438C97.4214 256.121 97.5101 255.864 97.6874 255.668C97.8741 255.472 98.1588 255.374 98.5414 255.374C98.9241 255.374 99.2041 255.472 99.3814 255.668C99.5588 255.864 99.6474 256.121 99.6474 256.438C99.6474 256.737 99.5588 256.989 99.3814 257.194C99.2041 257.39 98.9241 257.488 98.5414 257.488ZM104.984 268.996C104.62 268.996 104.247 268.982 103.864 268.954C103.491 268.926 103.141 268.889 102.814 268.842V267.218C103.15 267.255 103.509 267.288 103.892 267.316C104.275 267.353 104.634 267.372 104.97 267.372C105.595 267.372 106.099 267.297 106.482 267.148C106.874 266.999 107.159 266.761 107.336 266.434C107.523 266.117 107.616 265.711 107.616 265.216V263.718L108.036 262.766C108.008 263.466 107.863 264.063 107.602 264.558C107.341 265.043 106.986 265.417 106.538 265.678C106.09 265.93 105.572 266.056 104.984 266.056C104.461 266.056 103.985 265.958 103.556 265.762C103.136 265.566 102.772 265.295 102.464 264.95C102.165 264.605 101.932 264.199 101.764 263.732C101.596 263.265 101.512 262.766 101.512 262.234V261.94C101.512 261.408 101.596 260.913 101.764 260.456C101.941 259.989 102.189 259.583 102.506 259.238C102.823 258.893 103.201 258.627 103.64 258.44C104.079 258.253 104.564 258.16 105.096 258.16C105.721 258.16 106.263 258.295 106.72 258.566C107.187 258.837 107.551 259.229 107.812 259.742C108.073 260.255 108.218 260.885 108.246 261.632L107.91 261.688V258.398H109.45V265.104C109.45 266.028 109.291 266.775 108.974 267.344C108.657 267.913 108.167 268.329 107.504 268.59C106.851 268.861 106.011 268.996 104.984 268.996ZM105.544 264.39C105.917 264.39 106.258 264.306 106.566 264.138C106.874 263.97 107.121 263.727 107.308 263.41C107.495 263.093 107.588 262.71 107.588 262.262V261.772C107.588 261.343 107.49 260.979 107.294 260.68C107.107 260.381 106.86 260.157 106.552 260.008C106.244 259.849 105.908 259.77 105.544 259.77C105.133 259.77 104.769 259.868 104.452 260.064C104.144 260.251 103.901 260.517 103.724 260.862C103.547 261.207 103.458 261.618 103.458 262.094C103.458 262.561 103.547 262.967 103.724 263.312C103.901 263.657 104.144 263.923 104.452 264.11C104.769 264.297 105.133 264.39 105.544 264.39ZM111.573 266V258.398H113.113V261.66H112.973C112.973 260.885 113.075 260.241 113.281 259.728C113.486 259.205 113.789 258.813 114.191 258.552C114.601 258.291 115.11 258.16 115.717 258.16H115.801C116.706 258.16 117.392 258.454 117.859 259.042C118.325 259.621 118.559 260.489 118.559 261.646V266H116.613V261.478C116.613 261.011 116.477 260.633 116.207 260.344C115.945 260.055 115.581 259.91 115.115 259.91C114.639 259.91 114.251 260.059 113.953 260.358C113.663 260.647 113.519 261.039 113.519 261.534V266H111.573Z" fill="white"/>
<rect x="28" y="295" width="139" height="3" fill="#272633"/>
<rect x="28" y="295" width="32" height="3" fill="#0CCE84"/>
<path d="M72.03 282.18C71.4767 282.18 71.0033 282.077 70.61 281.87C70.2167 281.657 69.9167 281.373 69.71 281.02C69.51 280.66 69.41 280.267 69.41 279.84H70.56C70.56 280.247 70.69 280.57 70.95 280.81C71.2167 281.05 71.5767 281.17 72.03 281.17C72.33 281.17 72.5867 281.117 72.8 281.01C73.02 280.897 73.19 280.74 73.31 280.54C73.43 280.333 73.49 280.093 73.49 279.82C73.49 279.413 73.36 279.083 73.1 278.83C72.84 278.57 72.4833 278.44 72.03 278.44C71.83 278.44 71.6533 278.467 71.5 278.52C71.3533 278.573 71.2233 278.64 71.11 278.72L70.54 277.73L73.14 275.89L73.04 275.71H69.7V274.7H74.31V276.09L71.92 277.75L71.18 277.7C71.3 277.66 71.43 277.627 71.57 277.6C71.7167 277.573 71.88 277.56 72.06 277.56C72.6067 277.56 73.07 277.66 73.45 277.86C73.8367 278.053 74.1333 278.317 74.34 278.65C74.5467 278.983 74.65 279.357 74.65 279.77V279.9C74.65 280.307 74.5467 280.683 74.34 281.03C74.1333 281.377 73.8367 281.657 73.45 281.87C73.0633 282.077 72.59 282.18 72.03 282.18ZM80.488 282.06C80.0413 282.06 79.6646 282 79.358 281.88C79.0513 281.76 78.818 281.553 78.658 281.26C78.5046 280.967 78.428 280.57 78.428 280.07V275.04H79.538V280.17C79.538 280.45 79.6113 280.667 79.758 280.82C79.9113 280.967 80.1246 281.04 80.398 281.04H81.298V282.06H80.488ZM77.538 277.48V276.61H81.298V277.48H77.538ZM85.7955 282V280.39H85.6055V278.57C85.6055 278.237 85.5189 277.983 85.3455 277.81C85.1722 277.637 84.9155 277.55 84.5755 277.55C84.3889 277.55 84.1822 277.553 83.9555 277.56C83.7289 277.567 83.5055 277.577 83.2855 277.59C83.0722 277.597 82.8822 277.607 82.7155 277.62V276.61C82.8622 276.597 83.0222 276.587 83.1955 276.58C83.3755 276.567 83.5589 276.557 83.7455 276.55C83.9389 276.543 84.1222 276.54 84.2955 276.54C84.8422 276.54 85.2955 276.61 85.6555 276.75C86.0155 276.89 86.2822 277.113 86.4555 277.42C86.6355 277.72 86.7255 278.123 86.7255 278.63V282H85.7955ZM84.0455 282.14C83.6522 282.14 83.3089 282.073 83.0155 281.94C82.7222 281.8 82.4955 281.6 82.3355 281.34C82.1755 281.073 82.0955 280.757 82.0955 280.39C82.0955 280.003 82.1855 279.683 82.3655 279.43C82.5522 279.177 82.8155 278.987 83.1555 278.86C83.4955 278.733 83.9022 278.67 84.3755 278.67H85.7255V279.44H84.3455C83.9922 279.44 83.7222 279.527 83.5355 279.7C83.3489 279.867 83.2555 280.087 83.2555 280.36C83.2555 280.633 83.3489 280.853 83.5355 281.02C83.7222 281.18 83.9922 281.26 84.3455 281.26C84.5522 281.26 84.7489 281.223 84.9355 281.15C85.1222 281.07 85.2755 280.94 85.3955 280.76C85.5222 280.58 85.5922 280.327 85.6055 280L85.9055 280.39C85.8722 280.77 85.7789 281.09 85.6255 281.35C85.4789 281.603 85.2722 281.8 85.0055 281.94C84.7455 282.073 84.4255 282.14 84.0455 282.14ZM90.2161 282.16C89.4894 282.16 88.9228 282.007 88.5161 281.7C88.1161 281.393 87.9061 280.97 87.8861 280.43H88.9661C88.9794 280.63 89.0828 280.813 89.2761 280.98C89.4694 281.147 89.7861 281.23 90.2261 281.23C90.5994 281.23 90.8928 281.157 91.1061 281.01C91.3194 280.863 91.4261 280.68 91.4261 280.46C91.4261 280.26 91.3461 280.103 91.1861 279.99C91.0328 279.87 90.7694 279.79 90.3961 279.75L89.8661 279.7C89.3128 279.64 88.8728 279.477 88.5461 279.21C88.2261 278.943 88.0661 278.583 88.0661 278.13C88.0661 277.77 88.1561 277.467 88.3361 277.22C88.5161 276.973 88.7628 276.783 89.0761 276.65C89.3961 276.517 89.7628 276.45 90.1761 276.45C90.8161 276.45 91.3328 276.593 91.7261 276.88C92.1194 277.16 92.3228 277.573 92.3361 278.12H91.2661C91.2528 277.913 91.1561 277.74 90.9761 277.6C90.7961 277.46 90.5294 277.39 90.1761 277.39C89.8428 277.39 89.5861 277.457 89.4061 277.59C89.2328 277.723 89.1461 277.893 89.1461 278.1C89.1461 278.287 89.2128 278.433 89.3461 278.54C89.4794 278.647 89.6961 278.717 89.9961 278.75L90.5261 278.8C91.1328 278.867 91.6128 279.037 91.9661 279.31C92.3261 279.577 92.5061 279.95 92.5061 280.43C92.5061 280.777 92.4094 281.08 92.2161 281.34C92.0228 281.6 91.7528 281.803 91.4061 281.95C91.0661 282.09 90.6694 282.16 90.2161 282.16ZM97.5258 282L95.6058 279.49H94.7658L97.1358 276.61H98.3758L96.1958 279.23L96.2458 278.63L98.8658 282H97.5258ZM93.7858 282V274.7H94.9558V282H93.7858ZM101.95 284V276.61H102.88V278.94L102.7 278.93C102.733 278.363 102.853 277.897 103.06 277.53C103.267 277.163 103.54 276.89 103.88 276.71C104.22 276.53 104.593 276.44 105 276.44C105.387 276.44 105.737 276.513 106.05 276.66C106.363 276.8 106.633 276.997 106.86 277.25C107.087 277.503 107.257 277.797 107.37 278.13C107.49 278.463 107.55 278.823 107.55 279.21V279.4C107.55 279.78 107.49 280.14 107.37 280.48C107.25 280.813 107.077 281.107 106.85 281.36C106.623 281.613 106.353 281.813 106.04 281.96C105.727 282.107 105.377 282.18 104.99 282.18C104.597 282.18 104.23 282.097 103.89 281.93C103.55 281.763 103.27 281.497 103.05 281.13C102.83 280.763 102.707 280.287 102.68 279.7L103.12 280.44V284H101.95ZM104.74 281.17C105.067 281.17 105.353 281.093 105.6 280.94C105.847 280.78 106.037 280.56 106.17 280.28C106.31 279.993 106.38 279.667 106.38 279.3C106.38 278.933 106.31 278.61 106.17 278.33C106.037 278.05 105.847 277.833 105.6 277.68C105.36 277.52 105.073 277.44 104.74 277.44C104.447 277.44 104.173 277.507 103.92 277.64C103.667 277.773 103.463 277.967 103.31 278.22C103.157 278.467 103.08 278.767 103.08 279.12V279.55C103.08 279.89 103.157 280.183 103.31 280.43C103.47 280.67 103.677 280.853 103.93 280.98C104.183 281.107 104.453 281.17 104.74 281.17ZM108.953 282V274.7H110.133V282H108.953ZM108.243 275.6V274.7H110.133V275.6H108.243ZM113.702 282.16C113.069 282.16 112.582 281.957 112.242 281.55C111.902 281.137 111.732 280.53 111.732 279.73V276.61H112.902V279.89C112.902 280.263 113.006 280.56 113.212 280.78C113.419 280.993 113.699 281.1 114.052 281.1C114.412 281.1 114.706 280.987 114.932 280.76C115.166 280.527 115.282 280.21 115.282 279.81V276.61H116.452V282H115.522V279.7H115.642C115.642 280.24 115.569 280.693 115.422 281.06C115.282 281.42 115.072 281.693 114.792 281.88C114.519 282.067 114.172 282.16 113.752 282.16H113.702ZM120.05 282.16C119.323 282.16 118.757 282.007 118.35 281.7C117.95 281.393 117.74 280.97 117.72 280.43H118.8C118.813 280.63 118.917 280.813 119.11 280.98C119.303 281.147 119.62 281.23 120.06 281.23C120.433 281.23 120.727 281.157 120.94 281.01C121.153 280.863 121.26 280.68 121.26 280.46C121.26 280.26 121.18 280.103 121.02 279.99C120.867 279.87 120.603 279.79 120.23 279.75L119.7 279.7C119.147 279.64 118.707 279.477 118.38 279.21C118.06 278.943 117.9 278.583 117.9 278.13C117.9 277.77 117.99 277.467 118.17 277.22C118.35 276.973 118.597 276.783 118.91 276.65C119.23 276.517 119.597 276.45 120.01 276.45C120.65 276.45 121.167 276.593 121.56 276.88C121.953 277.16 122.157 277.573 122.17 278.12H121.1C121.087 277.913 120.99 277.74 120.81 277.6C120.63 277.46 120.363 277.39 120.01 277.39C119.677 277.39 119.42 277.457 119.24 277.59C119.067 277.723 118.98 277.893 118.98 278.1C118.98 278.287 119.047 278.433 119.18 278.54C119.313 278.647 119.53 278.717 119.83 278.75L120.36 278.8C120.967 278.867 121.447 279.037 121.8 279.31C122.16 279.577 122.34 279.95 122.34 280.43C122.34 280.777 122.243 281.08 122.05 281.34C121.857 281.6 121.587 281.803 121.24 281.95C120.9 282.09 120.503 282.16 120.05 282.16ZM125.837 282V276.61H126.767V278.86H126.727C126.727 278.087 126.897 277.51 127.237 277.13C127.577 276.743 128.08 276.55 128.747 276.55H128.937V277.58H128.577C128.07 277.58 127.68 277.717 127.407 277.99C127.14 278.257 127.007 278.64 127.007 279.14V282H125.837ZM132.278 282.18C131.812 282.18 131.405 282.1 131.058 281.94C130.712 281.78 130.428 281.57 130.208 281.31C129.988 281.043 129.822 280.747 129.708 280.42C129.602 280.087 129.548 279.747 129.548 279.4V279.21C129.548 278.857 129.602 278.517 129.708 278.19C129.822 277.857 129.988 277.56 130.208 277.3C130.428 277.033 130.705 276.823 131.038 276.67C131.378 276.51 131.772 276.43 132.218 276.43C132.798 276.43 133.282 276.557 133.668 276.81C134.055 277.063 134.345 277.393 134.538 277.8C134.732 278.2 134.828 278.633 134.828 279.1V279.57H130.048V278.78H134.038L133.718 279.18C133.718 278.82 133.662 278.51 133.548 278.25C133.435 277.983 133.268 277.78 133.048 277.64C132.828 277.493 132.552 277.42 132.218 277.42C131.872 277.42 131.582 277.5 131.348 277.66C131.115 277.82 130.942 278.04 130.828 278.32C130.715 278.6 130.658 278.93 130.658 279.31C130.658 279.67 130.715 279.993 130.828 280.28C130.942 280.56 131.118 280.783 131.358 280.95C131.598 281.11 131.905 281.19 132.278 281.19C132.652 281.19 132.958 281.11 133.198 280.95C133.438 280.783 133.585 280.59 133.638 280.37H134.728C134.655 280.737 134.505 281.057 134.278 281.33C134.058 281.603 133.778 281.813 133.438 281.96C133.098 282.107 132.712 282.18 132.278 282.18ZM137.761 282L138.811 276.79H140.261L141.491 282H140.531L139.291 276.82H139.741L138.661 282H137.761ZM137.301 282V281.05H138.411V282H137.301ZM136.921 282L135.421 276.61H136.561L137.991 282H136.921ZM140.801 282V281.05H141.911V282H140.801ZM141.251 282L142.511 276.61H143.581L142.261 282H141.251ZM147.09 282.06C146.643 282.06 146.266 282 145.96 281.88C145.653 281.76 145.42 281.553 145.26 281.26C145.106 280.967 145.03 280.57 145.03 280.07V275.04H146.14V280.17C146.14 280.45 146.213 280.667 146.36 280.82C146.513 280.967 146.726 281.04 147 281.04H147.9V282.06H147.09ZM144.14 277.48V276.61H147.9V277.48H144.14ZM153.093 282L154.143 276.79H155.593L156.823 282H155.863L154.623 276.82H155.073L153.993 282H153.093ZM152.633 282V281.05H153.743V282H152.633ZM152.253 282L150.753 276.61H151.893L153.323 282H152.253ZM156.133 282V281.05H157.243V282H156.133ZM156.583 282L157.843 276.61H158.913L157.593 282H156.583ZM162.356 282.18C161.89 282.18 161.483 282.1 161.136 281.94C160.79 281.78 160.506 281.57 160.286 281.31C160.066 281.043 159.9 280.747 159.786 280.42C159.68 280.087 159.626 279.747 159.626 279.4V279.21C159.626 278.857 159.68 278.517 159.786 278.19C159.9 277.857 160.066 277.56 160.286 277.3C160.506 277.033 160.783 276.823 161.116 276.67C161.456 276.51 161.85 276.43 162.296 276.43C162.876 276.43 163.36 276.557 163.746 276.81C164.133 277.063 164.423 277.393 164.616 277.8C164.81 278.2 164.906 278.633 164.906 279.1V279.57H160.126V278.78H164.116L163.796 279.18C163.796 278.82 163.74 278.51 163.626 278.25C163.513 277.983 163.346 277.78 163.126 277.64C162.906 277.493 162.63 277.42 162.296 277.42C161.95 277.42 161.66 277.5 161.426 277.66C161.193 277.82 161.02 278.04 160.906 278.32C160.793 278.6 160.736 278.93 160.736 279.31C160.736 279.67 160.793 279.993 160.906 280.28C161.02 280.56 161.196 280.783 161.436 280.95C161.676 281.11 161.983 281.19 162.356 281.19C162.73 281.19 163.036 281.11 163.276 280.95C163.516 280.783 163.663 280.59 163.716 280.37H164.806C164.733 280.737 164.583 281.057 164.356 281.33C164.136 281.603 163.856 281.813 163.516 281.96C163.176 282.107 162.79 282.18 162.356 282.18ZM168.519 282.18C168.052 282.18 167.645 282.1 167.299 281.94C166.952 281.78 166.669 281.57 166.449 281.31C166.229 281.043 166.062 280.747 165.949 280.42C165.842 280.087 165.789 279.747 165.789 279.4V279.21C165.789 278.857 165.842 278.517 165.949 278.19C166.062 277.857 166.229 277.56 166.449 277.3C166.669 277.033 166.945 276.823 167.279 276.67C167.619 276.51 168.012 276.43 168.459 276.43C169.039 276.43 169.522 276.557 169.909 276.81C170.295 277.063 170.585 277.393 170.779 277.8C170.972 278.2 171.069 278.633 171.069 279.1V279.57H166.289V278.78H170.279L169.959 279.18C169.959 278.82 169.902 278.51 169.789 278.25C169.675 277.983 169.509 277.78 169.289 277.64C169.069 277.493 168.792 277.42 168.459 277.42C168.112 277.42 167.822 277.5 167.589 277.66C167.355 277.82 167.182 278.04 167.069 278.32C166.955 278.6 166.899 278.93 166.899 279.31C166.899 279.67 166.955 279.993 167.069 280.28C167.182 280.56 167.359 280.783 167.599 280.95C167.839 281.11 168.145 281.19 168.519 281.19C168.892 281.19 169.199 281.11 169.439 280.95C169.679 280.783 169.825 280.59 169.879 280.37H170.969C170.895 280.737 170.745 281.057 170.519 281.33C170.299 281.603 170.019 281.813 169.679 281.96C169.339 282.107 168.952 282.18 168.519 282.18ZM176.071 282L174.151 279.49H173.311L175.681 276.61H176.921L174.741 279.23L174.791 278.63L177.411 282H176.071ZM172.331 282V274.7H173.501V282H172.331ZM178.068 282V280.59H179.428V282H178.068Z" fill="#858B93"/>
<path d="M178.75 300.18C178.197 300.18 177.723 300.087 177.33 299.9C176.937 299.707 176.617 299.447 176.37 299.12C176.13 298.793 175.953 298.417 175.84 297.99C175.727 297.557 175.67 297.1 175.67 296.62V296.07C175.67 295.403 175.777 294.8 175.99 294.26C176.21 293.72 176.547 293.29 177 292.97C177.46 292.65 178.043 292.49 178.75 292.49C179.463 292.49 180.043 292.65 180.49 292.97C180.943 293.29 181.28 293.72 181.5 294.26C181.72 294.8 181.83 295.403 181.83 296.07V296.62C181.83 297.1 181.773 297.557 181.66 297.99C181.547 298.417 181.367 298.793 181.12 299.12C180.88 299.447 180.563 299.707 180.17 299.9C179.783 300.087 179.31 300.18 178.75 300.18ZM178.75 299.09C179.397 299.09 179.87 298.873 180.17 298.44C180.477 298 180.63 297.307 180.63 296.36C180.63 295.367 180.473 294.657 180.16 294.23C179.853 293.797 179.383 293.58 178.75 293.58C178.117 293.58 177.643 293.797 177.33 294.23C177.023 294.657 176.87 295.36 176.87 296.34C176.87 297.293 177.023 297.99 177.33 298.43C177.637 298.87 178.11 299.09 178.75 299.09ZM182.73 300.6L184.78 292.2H185.92L183.87 300.6H182.73ZM189.182 300.18C188.629 300.18 188.156 300.077 187.762 299.87C187.369 299.657 187.069 299.373 186.862 299.02C186.662 298.66 186.562 298.267 186.562 297.84H187.712C187.712 298.247 187.842 298.57 188.102 298.81C188.369 299.05 188.729 299.17 189.182 299.17C189.482 299.17 189.739 299.117 189.952 299.01C190.172 298.897 190.342 298.74 190.462 298.54C190.582 298.333 190.642 298.093 190.642 297.82C190.642 297.413 190.512 297.083 190.252 296.83C189.992 296.57 189.636 296.44 189.182 296.44C188.982 296.44 188.806 296.467 188.652 296.52C188.506 296.573 188.376 296.64 188.262 296.72L187.692 295.73L190.292 293.89L190.192 293.71H186.852V292.7H191.462V294.09L189.072 295.75L188.332 295.7C188.452 295.66 188.582 295.627 188.722 295.6C188.869 295.573 189.032 295.56 189.212 295.56C189.759 295.56 190.222 295.66 190.602 295.86C190.989 296.053 191.286 296.317 191.492 296.65C191.699 296.983 191.802 297.357 191.802 297.77V297.9C191.802 298.307 191.699 298.683 191.492 299.03C191.286 299.377 190.989 299.657 190.602 299.87C190.216 300.077 189.742 300.18 189.182 300.18Z" fill="#858B93"/>
<circle cx="175.5" cy="36.5" r="1.5" fill="#838386"/>
<circle cx="182.5" cy="36.5" r="1.5" fill="#838386"/>
<circle cx="189.5" cy="36.5" r="1.5" fill="#838386"/>
</svg>
